<?xml version="1.0" encoding="UTF-8"?>
<svg id="Capa_1" data-name="Capa 1" xmlns="http://www.w3.org/2000/svg" viewBox="0 0 512 512">
  <defs>
    <style>
      .cls-1 {
        fill: #ffffff;
      }
    </style>
  </defs>
  <path class="cls-1" d="M304.77,242.67c0-66.98,0-133.97,0-200.95,0-5.27,0-10.54,0-15.81.01-.18.03-.35.03-.53,0-4.87-3.95-8.81-8.81-8.81-1.38,0-2.68.33-3.85.89,0-.02,0-.04,0-.05-1.19.69-2.38,1.38-3.57,2.07-24.3,14.11-48.48,28.43-73,42.15-4.78,2.68-5.55,5.68-5.54,10.4.09,87.3.05,174.6.05,261.91,0,11.1,0,22.19,0,33.29l-23.87-13.78c0-88.64-.02-177.28-.02-265.92,0-1.34-.1-2.69.02-4.02.33-3.94-.89-4.85-4.45-2.72-9.41,5.64-18.78,11.37-28.43,16.58-16.27,8.77-31.63,19.11-48.28,27.24-9.17,4.48-14.3,10.47-14.17,22.86.86,81.92.66,163.85.18,245.77-.06,9.94,3.28,14.88,11.64,19.49,27.67,15.29,54.87,31.46,83.54,48.04v-.36l26.63,15.38c.78.72,1.75,1.38,2.94,2.01,3.14,1.66,6.26,3.37,9.36,5.09l19.67,11.36c2.89,1.72,5.77,3.44,8.65,5.18.7.42,1.35.73,1.96.95l.6.35.09-.16c1.69.39,3.2-.03,5.12-1.18,12.08-7.23,24.15-14.52,36.58-21.11,5.25-2.78,7.09-6,7.07-11.86-.18-74.57-.12-149.15-.12-223.73Z"/>
  <path class="cls-1" d="M421.07,341.2c-.04-41.37.25-82.75-.15-124.12l-.94-3.4c-.19-.3-.4-.56-.68-.72-18.52-10.76-36.93-21.73-55.68-32.07-9.81-5.41-19.07-11.82-29.28-16.49-2.34-1.07-4.99.64-5.04,3.2-.03,1.44.16,2.9.15,4.32-.05,59.64-.04,119.27-.04,178.91,0,32.83-.03,65.67.06,98.5,0,1.49-.32,3.13-.14,4.64.28,2.29,2.7,3.66,4.85,2.8,1.1-.44,2.2-.89,3.21-1.48,19.71-11.42,39.47-22.77,59.05-34.4,7.7-4.57,16.15-7.94,23.05-13.83l1.44-3c.37-20.95.15-41.9.13-62.86Z"/>
</svg>